<mxfile host="app.diagrams.net" modified="2024-01-07T23:25:28.895Z" agent="Mozilla/5.0 (Macintosh; Intel Mac OS X 10_15_7) AppleWebKit/605.1.15 (KHTML, like Gecko) Version/17.1 Safari/605.1.15" etag="DBsoLoERBE1aI2FPqo6i" version="22.1.17" type="device">
  <diagram name="Page-1" id="ruMmTkOqeh_w42syXFha">
    <mxGraphModel dx="1434" dy="827" grid="0" gridSize="10" guides="1" tooltips="1" connect="1" arrows="1" fold="1" page="1" pageScale="1" pageWidth="850" pageHeight="1100" math="0" shadow="0">
      <root>
        <mxCell id="0" />
        <mxCell id="1" parent="0" />
        <mxCell id="6ivI12C9JN3-VmgRV1Ob-13" value="" style="edgeStyle=orthogonalEdgeStyle;rounded=0;orthogonalLoop=1;jettySize=auto;html=1;" edge="1" parent="1" source="6ivI12C9JN3-VmgRV1Ob-1" target="6ivI12C9JN3-VmgRV1Ob-12">
          <mxGeometry relative="1" as="geometry" />
        </mxCell>
        <mxCell id="6ivI12C9JN3-VmgRV1Ob-1" value="YAC Play Data 7 Training Weeks" style="rounded=0;whiteSpace=wrap;html=1;" vertex="1" parent="1">
          <mxGeometry x="115" y="140" width="200" height="60" as="geometry" />
        </mxCell>
        <mxCell id="6ivI12C9JN3-VmgRV1Ob-22" value="" style="edgeStyle=orthogonalEdgeStyle;rounded=0;orthogonalLoop=1;jettySize=auto;html=1;" edge="1" parent="1" source="6ivI12C9JN3-VmgRV1Ob-12" target="6ivI12C9JN3-VmgRV1Ob-21">
          <mxGeometry relative="1" as="geometry" />
        </mxCell>
        <mxCell id="6ivI12C9JN3-VmgRV1Ob-12" value="Train Tweedie GLM" style="rhombus;whiteSpace=wrap;html=1;rounded=0;" vertex="1" parent="1">
          <mxGeometry x="155" y="270" width="120" height="80" as="geometry" />
        </mxCell>
        <mxCell id="6ivI12C9JN3-VmgRV1Ob-15" value="" style="edgeStyle=orthogonalEdgeStyle;rounded=0;orthogonalLoop=1;jettySize=auto;html=1;" edge="1" parent="1" source="6ivI12C9JN3-VmgRV1Ob-16" target="6ivI12C9JN3-VmgRV1Ob-17">
          <mxGeometry relative="1" as="geometry" />
        </mxCell>
        <mxCell id="6ivI12C9JN3-VmgRV1Ob-16" value="YAC Play Data 7 Training Weeks" style="rounded=0;whiteSpace=wrap;html=1;" vertex="1" parent="1">
          <mxGeometry x="325" y="140" width="200" height="60" as="geometry" />
        </mxCell>
        <mxCell id="6ivI12C9JN3-VmgRV1Ob-17" value="Train XG Boost" style="rhombus;whiteSpace=wrap;html=1;rounded=0;" vertex="1" parent="1">
          <mxGeometry x="365" y="270" width="120" height="80" as="geometry" />
        </mxCell>
        <mxCell id="6ivI12C9JN3-VmgRV1Ob-18" value="" style="edgeStyle=orthogonalEdgeStyle;rounded=0;orthogonalLoop=1;jettySize=auto;html=1;" edge="1" parent="1" source="6ivI12C9JN3-VmgRV1Ob-19" target="6ivI12C9JN3-VmgRV1Ob-20">
          <mxGeometry relative="1" as="geometry" />
        </mxCell>
        <mxCell id="6ivI12C9JN3-VmgRV1Ob-19" value="YAC Play Data 7 Training Weeks" style="rounded=0;whiteSpace=wrap;html=1;" vertex="1" parent="1">
          <mxGeometry x="535" y="140" width="200" height="60" as="geometry" />
        </mxCell>
        <mxCell id="6ivI12C9JN3-VmgRV1Ob-20" value="Train ExtraTrees" style="rhombus;whiteSpace=wrap;html=1;rounded=0;" vertex="1" parent="1">
          <mxGeometry x="575" y="270" width="120" height="80" as="geometry" />
        </mxCell>
        <mxCell id="6ivI12C9JN3-VmgRV1Ob-21" value="Predict YAC 1 Week Holdout Data" style="ellipse;whiteSpace=wrap;html=1;rounded=0;" vertex="1" parent="1">
          <mxGeometry x="145" y="430" width="140" height="80" as="geometry" />
        </mxCell>
        <mxCell id="6ivI12C9JN3-VmgRV1Ob-23" value="" style="edgeStyle=orthogonalEdgeStyle;rounded=0;orthogonalLoop=1;jettySize=auto;html=1;" edge="1" parent="1" target="6ivI12C9JN3-VmgRV1Ob-24">
          <mxGeometry relative="1" as="geometry">
            <mxPoint x="425" y="350" as="sourcePoint" />
          </mxGeometry>
        </mxCell>
        <mxCell id="6ivI12C9JN3-VmgRV1Ob-24" value="Predict YAC 1 Week Holdout Data" style="ellipse;whiteSpace=wrap;html=1;rounded=0;" vertex="1" parent="1">
          <mxGeometry x="355" y="430" width="140" height="80" as="geometry" />
        </mxCell>
        <mxCell id="6ivI12C9JN3-VmgRV1Ob-25" value="" style="edgeStyle=orthogonalEdgeStyle;rounded=0;orthogonalLoop=1;jettySize=auto;html=1;" edge="1" parent="1" target="6ivI12C9JN3-VmgRV1Ob-26">
          <mxGeometry relative="1" as="geometry">
            <mxPoint x="635" y="350" as="sourcePoint" />
          </mxGeometry>
        </mxCell>
        <mxCell id="6ivI12C9JN3-VmgRV1Ob-26" value="Predict YAC 1 Week Holdout Data" style="ellipse;whiteSpace=wrap;html=1;rounded=0;" vertex="1" parent="1">
          <mxGeometry x="565" y="430" width="140" height="80" as="geometry" />
        </mxCell>
        <mxCell id="6ivI12C9JN3-VmgRV1Ob-27" value="Average Predictions Across 3 Models (Expected YAC)" style="rhombus;whiteSpace=wrap;html=1;" vertex="1" parent="1">
          <mxGeometry x="330" y="560" width="190" height="170" as="geometry" />
        </mxCell>
        <mxCell id="6ivI12C9JN3-VmgRV1Ob-28" value="" style="endArrow=classic;html=1;rounded=0;exitX=1;exitY=1;exitDx=0;exitDy=0;" edge="1" parent="1" source="6ivI12C9JN3-VmgRV1Ob-21" target="6ivI12C9JN3-VmgRV1Ob-27">
          <mxGeometry width="50" height="50" relative="1" as="geometry">
            <mxPoint x="465" y="490" as="sourcePoint" />
            <mxPoint x="515" y="440" as="targetPoint" />
          </mxGeometry>
        </mxCell>
        <mxCell id="6ivI12C9JN3-VmgRV1Ob-29" value="" style="endArrow=classic;html=1;rounded=0;exitX=0.5;exitY=1;exitDx=0;exitDy=0;" edge="1" parent="1" source="6ivI12C9JN3-VmgRV1Ob-24" target="6ivI12C9JN3-VmgRV1Ob-27">
          <mxGeometry width="50" height="50" relative="1" as="geometry">
            <mxPoint x="465" y="490" as="sourcePoint" />
            <mxPoint x="515" y="440" as="targetPoint" />
          </mxGeometry>
        </mxCell>
        <mxCell id="6ivI12C9JN3-VmgRV1Ob-31" value="" style="endArrow=classic;html=1;rounded=0;" edge="1" parent="1" target="6ivI12C9JN3-VmgRV1Ob-32">
          <mxGeometry width="50" height="50" relative="1" as="geometry">
            <mxPoint x="425" y="730" as="sourcePoint" />
            <mxPoint x="425" y="780" as="targetPoint" />
          </mxGeometry>
        </mxCell>
        <mxCell id="6ivI12C9JN3-VmgRV1Ob-32" value="Calculate YAC Saved&lt;br&gt;Expected - Actual YAC" style="rounded=1;whiteSpace=wrap;html=1;" vertex="1" parent="1">
          <mxGeometry x="305" y="770" width="240" height="60" as="geometry" />
        </mxCell>
        <mxCell id="6ivI12C9JN3-VmgRV1Ob-34" value="" style="endArrow=classic;html=1;rounded=0;exitX=0;exitY=1;exitDx=0;exitDy=0;" edge="1" parent="1" source="6ivI12C9JN3-VmgRV1Ob-26" target="6ivI12C9JN3-VmgRV1Ob-27">
          <mxGeometry width="50" height="50" relative="1" as="geometry">
            <mxPoint x="585" y="510" as="sourcePoint" />
            <mxPoint x="623" y="611" as="targetPoint" />
          </mxGeometry>
        </mxCell>
      </root>
    </mxGraphModel>
  </diagram>
</mxfile>
